<svg width="153" height="201" viewBox="0 0 153 201" fill="none" xmlns="http://www.w3.org/2000/svg">
<mask id="path-1-inside-1" fill="white">
<path fill-rule="evenodd" clip-rule="evenodd" d="M41 159V147H113V159H41ZM33 144C33 141.239 35.2386 139 38 139H116C118.761 139 121 141.239 121 144V162C121 164.761 118.761 167 116 167H111V178C111 180.761 108.761 183 106 183H101.9C101.966 183.323 102 183.658 102 184V196C102 198.761 99.7614 201 97 201H57C54.2386 201 52 198.761 52 196V184C52 183.658 52.0344 183.323 52.1 183H48C45.2386 183 43 180.761 43 178V167H38C35.2386 167 33 164.761 33 162V144ZM51 169V175H103V169H51ZM60 187V193H94V187H60Z"/>
</mask>
<path d="M41 147V137H31V147H41ZM41 159H31V169H41V159ZM113 147H123V137H113V147ZM113 159V169H123V159H113ZM111 167V157H101V167H111ZM101.9 183V173H89.6661L92.0999 184.989L101.9 183ZM52.1 183L61.9001 184.989L64.3339 173H52.1V183ZM43 167H53V157H43V167ZM51 175H41V185H51V175ZM51 169V159H41V169H51ZM103 175V185H113V175H103ZM103 169H113V159H103V169ZM60 193H50V203H60V193ZM60 187V177H50V187H60ZM94 193V203H104V193H94ZM94 187H104V177H94V187ZM31 147V159H51V147H31ZM113 137H41V157H113V137ZM123 159V147H103V159H123ZM41 169H113V149H41V169ZM38 129C29.7157 129 23 135.716 23 144H43C43 146.761 40.7614 149 38 149V129ZM116 129H38V149H116V129ZM131 144C131 135.716 124.284 129 116 129V149C113.239 149 111 146.761 111 144H131ZM131 162V144H111V162H131ZM116 177C124.284 177 131 170.284 131 162H111C111 159.239 113.239 157 116 157V177ZM111 177H116V157H111V177ZM101 167V178H121V167H101ZM101 178C101 175.239 103.239 173 106 173V193C114.284 193 121 186.284 121 178H101ZM106 173H101.9V193H106V173ZM92.0999 184.989C92.0333 184.661 92 184.329 92 184H112C112 182.986 111.898 181.985 111.7 181.011L92.0999 184.989ZM92 184V196H112V184H92ZM92 196C92 193.239 94.2386 191 97 191V211C105.284 211 112 204.284 112 196H92ZM97 191H57V211H97V191ZM57 191C59.7614 191 62 193.239 62 196H42C42 204.284 48.7157 211 57 211V191ZM62 196V184H42V196H62ZM62 184C62 184.329 61.9667 184.661 61.9001 184.989L42.2999 181.011C42.1021 181.985 42 182.986 42 184H62ZM52.1 173H48V193H52.1V173ZM48 173C50.7614 173 53 175.239 53 178H33C33 186.284 39.7157 193 48 193V173ZM53 178V167H33V178H53ZM38 177H43V157H38V177ZM23 162C23 170.284 29.7157 177 38 177V157C40.7614 157 43 159.239 43 162H23ZM23 144V162H43V144H23ZM61 175V169H41V175H61ZM103 165H51V185H103V165ZM93 169V175H113V169H93ZM51 179H103V159H51V179ZM70 193V187H50V193H70ZM94 183H60V203H94V183ZM84 187V193H104V187H84ZM60 197H94V177H60V197Z" fill="#130E27" mask="url(#path-1-inside-1)"/>
<mask id="path-3-inside-2" fill="white">
<path fill-rule="evenodd" clip-rule="evenodd" d="M143.814 109.927C149.673 99.3909 153 87.3238 153 74.5C153 33.3548 118.75 0 76.5 0C34.2502 0 0 33.3548 0 74.5C0 87.1189 3.22159 99.0051 8.90749 109.421L27.6228 147.219C28.4663 148.922 30.2028 150 32.1036 150H120.896C122.797 150 124.534 148.922 125.377 147.218L143.619 110.372C143.692 110.225 143.756 110.076 143.814 109.927Z"/>
</mask>
<path d="M143.814 109.927L130.704 102.637L130.187 103.567L129.807 104.56L143.814 109.927ZM8.90749 109.421L22.3499 102.765L22.217 102.497L22.0735 102.234L8.90749 109.421ZM27.6228 147.219L14.1804 153.875L14.1804 153.875L27.6228 147.219ZM125.377 147.218L138.82 153.874L138.82 153.874L125.377 147.218ZM143.619 110.372L130.176 103.716L130.176 103.716L143.619 110.372ZM138 74.5C138 84.6934 135.363 94.2603 130.704 102.637L156.923 117.217C163.983 104.522 168 89.9542 168 74.5H138ZM76.5 15C110.843 15 138 42.0112 138 74.5H168C168 24.6984 126.657 -15 76.5 -15V15ZM15 74.5C15 42.0112 42.1574 15 76.5 15V-15C26.343 -15 -15 24.6984 -15 74.5H15ZM22.0735 102.234C17.554 93.9546 15 84.5314 15 74.5H-15C-15 89.7065 -11.1108 104.056 -4.25855 116.608L22.0735 102.234ZM41.0652 140.563L22.3499 102.765L-4.53492 116.077L14.1804 153.875L41.0652 140.563ZM32.1036 135C35.9054 135 39.3783 137.156 41.0652 140.563L14.1804 153.875C17.5543 160.689 24.5002 165 32.1036 165V135ZM120.896 135H32.1036V165H120.896V135ZM111.934 140.563C113.621 137.156 117.094 135 120.896 135V165C128.5 165 135.446 160.688 138.82 153.874L111.934 140.563ZM130.176 103.716L111.934 140.563L138.82 153.874L157.062 117.027L130.176 103.716ZM129.807 104.56C129.918 104.27 130.041 103.989 130.176 103.716L157.061 117.027C157.342 116.46 157.595 115.882 157.82 115.295L129.807 104.56Z" fill="#130E27" mask="url(#path-3-inside-2)"/>
<path d="M76 28C91 28.5 121.4 38.6 123 75" stroke="#130E27" stroke-width="10"/>
</svg>
