<svg width="210" height="190" viewBox="0 0 210 190" fill="none" xmlns="http://www.w3.org/2000/svg">
<path fill-rule="evenodd" clip-rule="evenodd" d="M34.1038 96.7052L33.746 96.359L33.3695 96.0331C23.9278 87.86 18 75.8453 18 62.4256C18 37.89 37.89 18 62.4256 18C74.035 18 84.5689 22.4294 92.495 29.7224L104.683 40.937L116.871 29.7224C124.797 22.4294 135.331 18 146.94 18C171.476 18 191.366 37.89 191.366 62.4256C191.366 75.6502 185.61 87.5076 176.408 95.6721L176.123 95.9256L175.848 96.191L104.665 164.964L34.1038 96.7052ZM21.5887 109.642L104.657 190L188.355 109.136C201.244 97.7004 209.366 81.0116 209.366 62.4256C209.366 27.9489 181.417 0 146.94 0C130.641 0 115.801 6.24666 104.683 16.4765C93.5651 6.24666 78.7249 0 62.4256 0C27.9489 0 0 27.9489 0 62.4256C0 81.2877 8.3655 98.1959 21.5887 109.642ZM145 32C142.239 32 140 34.2386 140 37C140 39.7614 142.239 42 145 42C150.561 42 156.791 45.5427 160.306 51.2476C163.639 56.6586 164.464 63.9373 159.323 71.7519C157.805 74.0589 158.445 77.1594 160.752 78.6771C163.059 80.1948 166.159 79.555 167.677 77.2481C175.036 66.0627 174.111 54.5914 168.819 46.0024C163.709 37.7072 154.439 32 145 32Z" fill="#130E27"/>
</svg>
