<svg width="198" height="198" viewBox="0 0 198 198" fill="none" xmlns="http://www.w3.org/2000/svg">
<path fill-rule="evenodd" clip-rule="evenodd" d="M181.619 107C177.846 146.454 146.454 177.846 107 181.619V173C107 168.582 103.418 165 99 165C94.5817 165 91 168.582 91 173V181.619C51.5464 177.846 20.1537 146.454 16.3806 107H25C29.4183 107 33 103.418 33 99C33 94.5817 29.4183 91 25 91H16.3806C20.1537 51.5464 51.5464 20.1537 91 16.3806V25C91 29.4183 94.5817 33 99 33C103.418 33 107 29.4183 107 25V16.3806C146.454 20.1537 177.846 51.5464 181.619 91H172C167.582 91 164 94.5817 164 99C164 103.418 167.582 107 172 107H181.619ZM198 99C198 153.676 153.676 198 99 198C44.3238 198 0 153.676 0 99C0 44.3238 44.3238 0 99 0C153.676 0 198 44.3238 198 99ZM88.5877 136.362L82 116L61.5454 109.382L48 105L60.7194 98.6048L122.654 67.4647L137.5 60L130.135 74.8961L99.3532 137.151L93 150L88.5877 136.362ZM85.0782 106.486L74.2648 102.987L115.288 82.3608L94.9409 123.513L91.5145 112.922L89.9411 108.059L85.0782 106.486Z" fill="#130E27"/>
</svg>
