<svg width="181" height="184" viewBox="0 0 181 184" fill="none" xmlns="http://www.w3.org/2000/svg">
<path fill-rule="evenodd" clip-rule="evenodd" d="M127.526 52.5437C119.702 44.7192 119.702 32.0332 127.526 24.2088L141.661 10.0737C140.948 10.0249 140.228 10 139.501 10C122.692 10 109.501 23.2209 109.501 39C109.501 54.7791 122.692 68 139.501 68C156.31 68 169.501 54.7791 169.501 39L169.501 38.9041L155.861 52.5437C148.037 60.3682 135.351 60.3682 127.526 52.5437ZM166.962 27.301L174.376 19.8867C176.18 23.0095 177.556 26.3989 178.425 29.9793C179.129 32.8747 179.501 35.895 179.501 39C179.501 60.5391 161.592 78 139.501 78C134.65 78 130.001 77.1582 125.699 75.6161L122.763 78.5524L110.074 91.2414L114.135 95.3029L175.605 156.773C181.656 162.824 181.656 172.634 175.605 178.684C169.555 184.735 159.745 184.735 153.694 178.684L92.2238 117.214L88.1623 113.153L27.3989 173.916C21.3598 179.955 11.5684 179.955 5.52933 173.916C-0.509779 167.877 -0.509776 158.086 5.52933 152.047L71.8081 85.7679L2.57492 16.5347L0 2.5L13.8581 5.25145L83.0913 74.4847L100.893 56.6828L102.875 54.7013C100.705 49.8974 99.5008 44.5858 99.5008 39C99.5008 17.4609 117.409 0 139.501 0C143.242 0 146.863 0.500752 150.298 1.43726C153.832 2.40098 157.169 3.82614 160.235 5.64192L152.855 13.0224L134.597 31.2798C130.678 35.1991 130.678 41.5534 134.597 45.4726C138.516 49.3919 144.871 49.3918 148.79 45.4726L166.962 27.301ZM77.465 91.4247L27.0513 141.838L37.6071 152.394L88.0208 101.981L77.465 91.4247ZM99.304 90.6973L88.7482 80.1415L106.55 62.3397L117.106 72.8955L99.304 90.6973ZM20.8265 148.063L11.1862 157.704C8.27127 160.618 8.27127 165.344 11.1862 168.259C14.1011 171.174 18.8271 171.174 21.742 168.259L31.3823 158.619L20.8265 148.063ZM143.378 157.055L97.8806 111.557L108.478 100.96L153.976 146.457L143.378 157.055ZM150.044 163.72L159.351 173.027C162.277 175.954 167.022 175.954 169.948 173.028C172.875 170.101 172.875 165.356 169.948 162.43L160.641 153.123L150.044 163.72Z" fill="#130E27"/>
</svg>
